<?xml version="1.0" standalone="no"?>
<!DOCTYPE svg PUBLIC "-//W3C//DTD SVG 20010904//EN"
 "http://www.w3.org/TR/2001/REC-SVG-20010904/DTD/svg10.dtd">
<svg version="1.0" xmlns="http://www.w3.org/2000/svg"
 width="413.000000pt" height="480.000000pt" viewBox="0 0 413.000000 480.000000"
 preserveAspectRatio="xMidYMid meet">
<metadata>
Created by potrace 1.16, written by Peter Selinger 2001-2019
</metadata>
<g transform="translate(0.000000,480.000000) scale(0.100000,-0.100000)"
fill="#000000" stroke="none">
<path d="M2110 4280 l0 -290 28 0 28 0 33 253 c18 138 35 269 38 290 l6 37
-67 0 -66 0 0 -290z"/>
<path d="M1350 4199 c-375 -43 -728 -241 -911 -510 -72 -106 -119 -238 -119
-333 l0 -46 84 0 c458 0 819 118 1025 336 67 70 91 109 137 224 28 69 170 205
267 256 l79 41 -59 11 c-164 32 -344 39 -503 21z"/>
<path d="M2008 3909 c-206 -30 -343 -129 -433 -313 -56 -114 -84 -214 -139
-486 -33 -163 -52 -234 -78 -291 -35 -75 -113 -203 -142 -232 -24 -23 -200
-31 -323 -14 -129 19 -201 51 -275 124 -32 31 -59 55 -62 52 -2 -2 -6 -103 -7
-224 -3 -183 0 -229 14 -275 23 -78 73 -133 159 -174 l71 -34 -34 -6 c-19 -2
-83 -12 -144 -21 -235 -36 -369 -89 -432 -171 l-28 -37 0 -356 c0 -352 0 -357
24 -415 27 -67 95 -142 158 -174 112 -58 303 -89 473 -76 95 6 98 6 114 -17
251 -354 486 -525 747 -546 81 -6 272 5 265 15 -7 11 271 6 394 -8 63 -6 142
-9 175 -5 158 17 327 104 510 260 l60 52 200 12 c453 28 662 89 711 208 17 39
20 597 4 707 -12 84 -57 172 -113 222 -71 65 -231 123 -338 124 -57 0 -53 11
19 46 84 42 139 100 147 157 4 23 5 182 3 353 l-3 311 -35 69 c-30 58 -45 76
-97 111 -114 76 -293 98 -567 68 -87 -9 -162 -13 -166 -8 -10 11 -30 76 -90
297 -63 229 -90 306 -143 410 -118 229 -322 326 -599 285z m502 -343 c47 -98
82 -205 171 -524 l42 -153 -22 -15 c-15 -11 -19 -19 -12 -28 13 -15 32 -139
31 -198 0 -26 4 -49 10 -53 5 -3 10 -21 10 -40 0 -21 6 -35 16 -39 8 -3 13
-10 10 -15 -4 -5 -1 -11 6 -13 8 -3 9 -17 1 -56 -6 -30 -6 -55 -1 -58 17 -11
-3 -22 -69 -38 -107 -25 -304 -58 -311 -51 -8 7 -14 34 -16 67 0 14 -5 24 -9
21 -5 -3 -8 19 -7 48 3 87 1 106 -9 91 -5 -8 -6 8 -3 37 3 36 1 51 -7 51 -7 0
-11 10 -10 23 2 12 0 28 -5 35 -4 7 -6 16 -3 19 3 3 2 15 -3 28 -6 15 -4 27 3
35 7 7 8 10 2 8 -5 -3 -15 0 -22 7 -10 11 -7 17 14 30 25 17 239 75 278 75 40
1 45 12 29 65 -8 28 -38 145 -65 260 -67 286 -93 371 -144 484 l-45 96 46 -49
c27 -29 65 -91 94 -150z m-549 112 c26 -15 42 -33 51 -57 16 -47 12 -101 -8
-121 -15 -14 -15 -13 -5 7 25 48 4 115 -45 148 -41 26 -111 16 -141 -22 -29
-36 -30 -91 -2 -127 16 -20 29 -26 61 -26 52 0 78 22 78 66 0 32 -28 64 -57
64 -36 0 -59 -72 -27 -84 20 -8 34 1 34 20 0 8 5 14 10 14 14 0 13 -23 -2 -38
-30 -30 -78 0 -78 47 0 59 76 85 120 41 14 -14 20 -33 20 -63 0 -56 -31 -87
-93 -94 -40 -5 -48 -2 -81 30 -32 31 -36 41 -36 85 0 106 106 164 201 110z
m-1289 -1086 c25 -44 34 -52 52 -47 17 5 18 4 5 -4 -14 -9 -15 -27 -11 -129 4
-96 1 -131 -13 -174 -19 -61 -33 -67 -77 -35 l-24 19 1 208 c0 115 4 212 8
216 4 4 -7 24 -25 43 -30 33 -29 33 11 -4 23 -22 57 -64 73 -93z m2265 -102
c-24 -19 -46 -67 -25 -54 7 5 9 -2 4 -19 -5 -22 -2 -28 18 -33 13 -3 30 -5 37
-4 23 4 39 0 38 -7 -5 -34 41 -48 58 -18 5 9 13 11 22 6 11 -7 10 -11 -5 -20
-50 -28 -51 -24 23 -138 38 -59 77 -124 87 -143 l16 -35 -22 29 c-64 83 -204
240 -235 263 -42 32 -49 46 -57 103 -6 41 -4 48 26 82 23 27 34 33 36 22 2 -8
-7 -24 -21 -34z m378 -100 c100 -9 174 -26 191 -43 10 -9 -52 -44 -141 -78
-139 -55 -132 -55 -168 -2 -18 26 -41 56 -52 67 -39 40 -26 74 27 69 18 -1 83
-7 143 -13z m-468 -654 c3 -3 17 -97 28 -191 5 -40 30 -117 36 -111 3 3 11 -5
18 -17 11 -18 11 -20 0 -9 -32 30 -40 -3 -13 -53 9 -16 16 -42 15 -57 -1 -18
8 -36 26 -53 l28 -26 -28 5 c-16 3 -25 1 -22 -5 4 -5 14 -9 23 -10 39 -1 -35
-20 -176 -44 -81 -14 -152 -27 -159 -30 -6 -2 -37 -7 -67 -10 -55 -7 -67 0
-44 23 9 9 9 12 -3 12 -16 0 -20 33 -6 46 12 13 7 31 -8 31 -8 0 -15 -4 -15
-9 0 -5 -5 -6 -10 -3 -8 5 -8 11 0 20 9 10 7 21 -7 41 -10 16 -12 25 -5 21 7
-5 12 -3 12 3 0 6 3 9 8 7 4 -3 8 6 9 20 0 15 -2 22 -5 16 -12 -17 -42 -11
-42 9 0 10 7 18 18 19 15 0 15 1 1 7 -9 4 -15 15 -13 25 1 9 -1 15 -6 12 -8
-5 -24 105 -21 141 1 11 -2 32 -8 46 -14 37 8 53 105 79 176 46 312 65 331 45z
m-2157 -248 c0 -35 3 -81 7 -102 l6 -39 -94 6 c-97 6 -250 44 -252 62 -1 16
125 75 226 106 50 15 95 28 100 28 4 1 7 -27 7 -61z m1255 -80 c14 -6 25 -15
25 -19 0 -16 30 3 31 20 0 9 3 11 5 4 6 -13 -13 -53 -24 -53 -5 0 -18 9 -30
21 -17 15 -33 20 -65 18 -47 -4 -77 -27 -96 -75 -11 -27 -10 -37 5 -65 22 -44
42 -58 79 -58 34 0 56 14 74 47 15 29 6 58 -24 78 -19 13 -28 13 -47 3 -31
-16 -38 -29 -32 -59 4 -24 4 -24 -7 -3 -25 48 21 103 76 89 27 -7 65 -59 65
-89 0 -11 -15 -34 -34 -53 -28 -28 -42 -34 -75 -34 -33 0 -47 6 -76 35 -29 29
-35 43 -35 76 0 91 102 155 185 117z m1698 -193 c83 -17 181 -60 172 -75 -10
-16 -101 -60 -180 -87 -75 -26 -246 -65 -254 -58 -2 3 6 40 17 82 12 43 27 98
33 122 l11 44 66 -7 c37 -3 98 -13 135 -21z"/>
<path d="M2016 190 c-110 -20 -82 -54 48 -58 186 -7 249 48 71 62 -39 2 -92 1
-119 -4z"/>
</g>
</svg>
